<svg viewBox="0 0 512 512" xmlns="http://www.w3.org/2000/svg">
  <rect width="512" height="512" rx="80" fill="#1a1a2e"/>
  <g transform="translate(136, 56) scale(2)">
    <rect x="4" y="4" width="112" height="152" rx="12" fill="#e94560" stroke="#c0392b" stroke-width="2"/>
    <rect x="4" y="4" width="112" height="36" rx="12" fill="#d63851"/>
    <rect x="4" y="28" width="112" height="12" fill="#d63851"/>
    <line x1="4" y1="38" x2="116" y2="38" stroke="#c0392b" stroke-width="2"/>
    <circle cx="32" cy="20" r="14" fill="#1a3a5c" stroke="#0f2840" stroke-width="2"/>
    <circle cx="32" cy="20" r="10" fill="#448aff"/>
    <circle cx="28" cy="16" r="3" fill="rgba(255,255,255,0.5)"/>
    <circle cx="62" cy="16" r="3.5" fill="#e94560" stroke="#c0392b" stroke-width="1"/>
    <circle cx="74" cy="16" r="2.5" fill="#ffd700"/>
    <circle cx="84" cy="16" r="2.5" fill="#00c853"/>
    <rect x="16" y="48" width="88" height="60" rx="4" fill="#0f2840" stroke="#0a1e30" stroke-width="1.5"/>
    <rect x="20" y="52" width="80" height="52" rx="2" fill="#1a3a5c"/>
    <rect x="40" y="118" width="40" height="8" rx="4" fill="#c0392b"/>
    <rect x="56" y="116" width="8" height="12" rx="4" fill="#c0392b"/>
    <circle cx="30" cy="136" r="5" fill="#c0392b" stroke="#a93226" stroke-width="1"/>
    <rect x="70" y="132" width="24" height="3" rx="1.5" fill="#c0392b"/>
    <rect x="70" y="138" width="18" height="3" rx="1.5" fill="#c0392b"/>
  </g>
</svg>
